# xmcd
#
# Track frame offsets:
#	150
#	15250
#	30202
#	44882
#	60430
#	69820
#	89627
#	106085
#	120990
#
# Disc length: 1824 seconds
#
# Revision: 2
# Processed by: cddbd v1.5.1PL0 Copyright (c) Steve Scherf et al.
# Submitted via: audiograbber 1.83.01
#
DISCID=61071e09
DTITLE=Various Artist - Country's Greatest Hits, Volume 6 - Superstars
DYEAR=1991
DGENRE=Country
TTITLE0=Waylon Jennings - Luckenbach, Texas (Back To The Basics of Love)
TTITLE1=Merle Haggard And The Strangers - It's All In The Movies
TTITLE2=Don Williams - Tulsa Time
TTITLE3=Crystal Gayle - A Long And Lasting Love
TTITLE4=Charlie Pride - Kiss An Angel Goodbye
TTITLE5=Eddie Rabbitt - Suspicions
TTITLE6=Anne Murray - You Needed Me
TTITLE7=Glen Campbell - Rhinestone Cowboy
TTITLE8=Gary Morris - The Love She Found In Me
EXTD=
EXTT0=Waylon Jennings\n
EXTT1=Merle Haggard\n
EXTT2=Don Williams\n
EXTT3=Crystal Gayle\n
EXTT4=Charlie Pride\n
EXTT5=Eddie Rabbitt\n
EXTT6=Anne Murray\n
EXTT7=Glen Campbell\n
EXTT8=Gary Morris\n
PLAYORDER=
